<svg width="365" height="328" viewBox="0 0 365 328" fill="none" xmlns="http://www.w3.org/2000/svg">
<path d="M29.9259 0V14.4138H56.1111V0H145.889V14.4138H172.074V0H202V39.638H0V0H29.9259Z" transform="translate(163 14.4138)" fill="#2F80ED"/>
<path d="M29.9259 0H0V154.948H202V0H172.074H145.889H56.1111H29.9259Z" transform="translate(365 54.0516) scale(-1 1)" fill="#EDEADA"/>
<path d="M108.481 0H101H74.8148H67.3333H41.1481H33.6667H0V32.4311V39.638V64.8621V72.069V104.5H33.6667H41.1481H67.3333H74.8148H101H108.481H142.148V72.069V64.8621V39.638V32.4311V0H108.481ZM74.8148 7.2069H101V32.4311H74.8148V7.2069ZM101 64.8621H74.8148V39.638H101V64.8621ZM41.1481 39.638H67.3333V64.8621H41.1481V39.638ZM41.1481 7.2069H67.3333V32.4311H41.1481V7.2069ZM7.48148 7.2069H33.6667V32.4311H7.48148V7.2069ZM7.48148 39.638H33.6667V64.8621H7.48148V39.638ZM33.6667 97.2932H7.48148V72.069H33.6667V97.2932ZM67.3333 97.2932H41.1481V72.069H67.3333V97.2932ZM101 97.2932H74.8148V72.069H101V97.2932ZM134.667 97.2932H108.481V72.069H134.667V97.2932ZM134.667 64.8621H108.481V39.638H134.667V64.8621ZM108.481 32.4311V7.2069H134.667V32.4311H108.481Z" transform="translate(335.074 79.2758) scale(-1 1)" fill="#CEC9AE"/>
<path d="M26.1852 0H0V28.8276H26.1852V0Z" transform="translate(335.074) scale(-1 1)" fill="#28384C"/>
<path d="M26.1852 0H0V28.8276H26.1852V0Z" transform="translate(219.111) scale(-1 1)" fill="#28384C"/>
<path d="M0 0H26.1852V25.2241H0V0Z" transform="translate(234.074 118.914)" fill="#6FCF97"/>
<mask id="mask0" mask-type="alpha" maskUnits="userSpaceOnUse" x="206" y="88" width="89" height="132">
<rect width="89" height="126" transform="translate(206 88)" fill="#C4C4C4"/>
</mask>
<g mask="url(#mask0)">
<path d="M255 139.358C255 117.392 236.992 99.3869 215.021 99.3869C193.051 99.3869 175.042 117.392 175.042 139.358C175.042 157.723 187.288 173.207 204.216 177.888V220.38C204.216 250.268 180.085 274.394 150.191 274.394C120.297 274.394 96.1652 250.268 96.1652 220.38V159.523C139.386 154.842 172.881 118.112 172.881 73.82V22.326C172.881 16.2044 168.199 11.5231 162.076 11.5231H138.665V10.8029C138.665 4.68126 133.983 0 127.86 0C121.737 0 117.055 4.68126 117.055 10.8029V33.8491C117.055 39.9708 121.737 44.6521 127.86 44.6521C133.983 44.6521 138.665 39.9708 138.665 33.8491V33.129H151.271V73.82C151.271 109.47 122.097 138.637 86.4407 138.637C50.7839 138.637 21.6102 109.47 21.6102 73.82V33.129H33.4958V33.8491C33.4958 39.9708 38.178 44.6521 44.3008 44.6521C50.4237 44.6521 55.1059 39.9708 55.1059 33.8491V10.8029C55.1059 4.68126 50.4237 0 44.3008 0C38.178 0 33.4958 4.68126 33.4958 10.8029V11.5231H10.8051C4.6822 11.5231 0 16.2044 0 22.326V73.82C0 117.392 32.4152 153.762 74.5551 159.523V220.38C74.5551 262.151 108.411 296 150.191 296C191.97 296 225.826 262.151 225.826 220.38V177.888C242.754 173.207 255 157.723 255 139.358ZM215.021 157.723C204.936 157.723 196.653 149.44 196.653 139.358C196.653 129.275 204.936 120.993 215.021 120.993C225.106 120.993 233.39 129.275 233.39 139.358C233.39 149.44 225.106 157.723 215.021 157.723Z" transform="translate(32 -8)" fill="url(#paint0_linear)"/>
</g>
<mask id="mask1" mask-type="alpha" maskUnits="userSpaceOnUse" x="0" y="32" width="206" height="173">
<rect width="206" height="173" transform="translate(0 32)" fill="#C4C4C4"/>
</mask>
<g mask="url(#mask1)">
<path d="M255 139.358C255 117.392 236.992 99.3869 215.021 99.3869C193.051 99.3869 175.042 117.392 175.042 139.358C175.042 157.723 187.288 173.207 204.216 177.888V220.38C204.216 250.268 180.085 274.394 150.191 274.394C120.297 274.394 96.1652 250.268 96.1652 220.38V159.523C139.386 154.842 172.881 118.112 172.881 73.82V22.326C172.881 16.2044 168.199 11.5231 162.076 11.5231H138.665V10.8029C138.665 4.68126 133.983 0 127.86 0C121.737 0 117.055 4.68126 117.055 10.8029V33.8491C117.055 39.9708 121.737 44.6521 127.86 44.6521C133.983 44.6521 138.665 39.9708 138.665 33.8491V33.129H151.271V73.82C151.271 109.47 122.097 138.637 86.4407 138.637C50.7839 138.637 21.6102 109.47 21.6102 73.82V33.129H33.4958V33.8491C33.4958 39.9708 38.178 44.6521 44.3008 44.6521C50.4237 44.6521 55.1059 39.9708 55.1059 33.8491V10.8029C55.1059 4.68126 50.4237 0 44.3008 0C38.178 0 33.4958 4.68126 33.4958 10.8029V11.5231H10.8051C4.6822 11.5231 0 16.2044 0 22.326V73.82C0 117.392 32.4152 153.762 74.5551 159.523V220.38C74.5551 262.151 108.411 296 150.191 296C191.97 296 225.826 262.151 225.826 220.38V177.888C242.754 173.207 255 157.723 255 139.358ZM215.021 157.723C204.936 157.723 196.653 149.44 196.653 139.358C196.653 129.275 204.936 120.993 215.021 120.993C225.106 120.993 233.39 129.275 233.39 139.358C233.39 149.44 225.106 157.723 215.021 157.723Z" transform="translate(32 39)" fill="url(#paint1_linear)"/>
</g>
<mask id="mask2" mask-type="alpha" maskUnits="userSpaceOnUse" x="76" y="204" width="194" height="124">
<rect width="194" height="124" transform="translate(76 204)" fill="#C4C4C4"/>
</mask>
<g mask="url(#mask2)">
<path d="M255 139.358C255 117.392 236.992 99.3869 215.021 99.3869C193.051 99.3869 175.042 117.392 175.042 139.358C175.042 157.723 187.288 173.207 204.216 177.888V220.38C204.216 250.268 180.085 274.394 150.191 274.394C120.297 274.394 96.1652 250.268 96.1652 220.38V159.523C139.386 154.842 172.881 118.112 172.881 73.82V22.326C172.881 16.2044 168.199 11.5231 162.076 11.5231H138.665V10.8029C138.665 4.68126 133.983 0 127.86 0C121.737 0 117.055 4.68126 117.055 10.8029V33.8491C117.055 39.9708 121.737 44.6521 127.86 44.6521C133.983 44.6521 138.665 39.9708 138.665 33.8491V33.129H151.271V73.82C151.271 109.47 122.097 138.637 86.4407 138.637C50.7839 138.637 21.6102 109.47 21.6102 73.82V33.129H33.4958V33.8491C33.4958 39.9708 38.178 44.6521 44.3008 44.6521C50.4237 44.6521 55.1059 39.9708 55.1059 33.8491V10.8029C55.1059 4.68126 50.4237 0 44.3008 0C38.178 0 33.4958 4.68126 33.4958 10.8029V11.5231H10.8051C4.6822 11.5231 0 16.2044 0 22.326V73.82C0 117.392 32.4152 153.762 74.5551 159.523V220.38C74.5551 262.151 108.411 296 150.191 296C191.97 296 225.826 262.151 225.826 220.38V177.888C242.754 173.207 255 157.723 255 139.358ZM215.021 157.723C204.936 157.723 196.653 149.44 196.653 139.358C196.653 129.275 204.936 120.993 215.021 120.993C225.106 120.993 233.39 129.275 233.39 139.358C233.39 149.44 225.106 157.723 215.021 157.723Z" transform="translate(32 25)" fill="url(#paint2_linear)"/>
</g>
<defs>
<linearGradient id="paint0_linear" x2="1" gradientUnits="userSpaceOnUse" gradientTransform="translate(275.529 0.000360097) scale(296.059 295.999) rotate(90)">
<stop stop-color="#4F4F4F"/>
<stop offset="1" stop-color="#4F4F4F"/>
</linearGradient>
<linearGradient id="paint1_linear" x2="1" gradientUnits="userSpaceOnUse" gradientTransform="translate(275.529 0.000360097) scale(296.059 295.999) rotate(90)">
<stop stop-color="#4F4F4F"/>
<stop offset="1" stop-color="#4F4F4F"/>
</linearGradient>
<linearGradient id="paint2_linear" x2="1" gradientUnits="userSpaceOnUse" gradientTransform="translate(275.529 0.000360097) scale(296.059 295.999) rotate(90)">
<stop stop-color="#4F4F4F"/>
<stop offset="1" stop-color="#4F4F4F"/>
</linearGradient>
</defs>
</svg>
